<mxfile host="app.diagrams.net" modified="2020-12-08T17:48:58.571Z" agent="5.0 (Windows NT 10.0; Win64; x64) AppleWebKit/537.36 (KHTML, like Gecko) Chrome/87.0.4280.67 Safari/537.36 Edg/87.0.664.55" etag="KTHe_xKlsaFHRHfTZK-j" version="13.11.0" type="github">
  <diagram id="S6aOqGhqeq-BG47jcoKl" name="Page-1">
    <mxGraphModel dx="677" dy="383" grid="1" gridSize="10" guides="1" tooltips="1" connect="1" arrows="1" fold="1" page="1" pageScale="1" pageWidth="827" pageHeight="1169" math="0" shadow="0">
      <root>
        <mxCell id="0" />
        <mxCell id="1" parent="0" />
        <mxCell id="Q2K4f21obNatQnWwm_q--11" value="" style="rounded=0;whiteSpace=wrap;html=1;" parent="1" vertex="1">
          <mxGeometry x="70" y="40" width="708" height="1085" as="geometry" />
        </mxCell>
        <mxCell id="oppchM2e3aYntKxN--DW-1" style="edgeStyle=orthogonalEdgeStyle;rounded=0;orthogonalLoop=1;jettySize=auto;html=1;entryX=0;entryY=0.5;entryDx=0;entryDy=0;exitX=0;exitY=0.5;exitDx=0;exitDy=0;" parent="1" source="RNQDR2XtsP2G8HtWaNHG-14" target="Q2K4f21obNatQnWwm_q--95" edge="1">
          <mxGeometry relative="1" as="geometry">
            <mxPoint x="37" y="590" as="sourcePoint" />
            <Array as="points">
              <mxPoint x="35" y="432" />
            </Array>
          </mxGeometry>
        </mxCell>
        <mxCell id="suOXrTceFCORH5XAzuAw-3" style="edgeStyle=orthogonalEdgeStyle;rounded=0;orthogonalLoop=1;jettySize=auto;html=1;entryX=0;entryY=0.5;entryDx=0;entryDy=0;exitX=0.5;exitY=0;exitDx=0;exitDy=0;" parent="1" source="RNQDR2XtsP2G8HtWaNHG-14" target="suOXrTceFCORH5XAzuAw-1" edge="1">
          <mxGeometry relative="1" as="geometry">
            <mxPoint x="80" y="531" as="sourcePoint" />
          </mxGeometry>
        </mxCell>
        <mxCell id="suOXrTceFCORH5XAzuAw-4" style="edgeStyle=orthogonalEdgeStyle;rounded=0;orthogonalLoop=1;jettySize=auto;html=1;entryX=0;entryY=0.5;entryDx=0;entryDy=0;exitX=1;exitY=0.5;exitDx=0;exitDy=0;" parent="1" source="RNQDR2XtsP2G8HtWaNHG-14" target="suOXrTceFCORH5XAzuAw-2" edge="1">
          <mxGeometry relative="1" as="geometry">
            <Array as="points">
              <mxPoint x="35" y="822" />
            </Array>
            <mxPoint x="60" y="760" as="sourcePoint" />
          </mxGeometry>
        </mxCell>
        <mxCell id="suOXrTceFCORH5XAzuAw-35" style="edgeStyle=orthogonalEdgeStyle;rounded=0;orthogonalLoop=1;jettySize=auto;html=1;entryX=0;entryY=0.5;entryDx=0;entryDy=0;exitX=0.75;exitY=0;exitDx=0;exitDy=0;" parent="1" source="RNQDR2XtsP2G8HtWaNHG-14" target="suOXrTceFCORH5XAzuAw-29" edge="1">
          <mxGeometry relative="1" as="geometry">
            <Array as="points">
              <mxPoint x="110" y="668" />
              <mxPoint x="110" y="752" />
            </Array>
            <mxPoint x="60" y="542" as="sourcePoint" />
          </mxGeometry>
        </mxCell>
        <mxCell id="Q2K4f21obNatQnWwm_q--5" value="Google&lt;br&gt;Account" style="shape=umlActor;verticalLabelPosition=bottom;verticalAlign=top;html=1;outlineConnect=0;" parent="1" vertex="1">
          <mxGeometry x="790" y="422" width="30" height="60" as="geometry" />
        </mxCell>
        <mxCell id="Q2K4f21obNatQnWwm_q--25" style="edgeStyle=orthogonalEdgeStyle;rounded=0;orthogonalLoop=1;jettySize=auto;html=1;entryX=0;entryY=0.5;entryDx=0;entryDy=0;exitX=0.5;exitY=0;exitDx=0;exitDy=0;" parent="1" target="Q2K4f21obNatQnWwm_q--24" edge="1">
          <mxGeometry relative="1" as="geometry">
            <mxPoint x="60" y="1028" as="sourcePoint" />
          </mxGeometry>
        </mxCell>
        <mxCell id="Q2K4f21obNatQnWwm_q--24" value="SuperLogin" style="ellipse;whiteSpace=wrap;html=1;" parent="1" vertex="1">
          <mxGeometry x="130" y="1006" width="80" height="44" as="geometry" />
        </mxCell>
        <mxCell id="Q2K4f21obNatQnWwm_q--91" style="edgeStyle=orthogonalEdgeStyle;rounded=0;orthogonalLoop=1;jettySize=auto;html=1;exitX=1;exitY=0.5;exitDx=0;exitDy=0;entryX=0.5;entryY=0.5;entryDx=0;entryDy=0;entryPerimeter=0;" parent="1" source="Q2K4f21obNatQnWwm_q--26" target="Q2K4f21obNatQnWwm_q--5" edge="1">
          <mxGeometry relative="1" as="geometry" />
        </mxCell>
        <mxCell id="Q2K4f21obNatQnWwm_q--26" value="Login" style="ellipse;whiteSpace=wrap;html=1;" parent="1" vertex="1">
          <mxGeometry x="630" y="430" width="80" height="44" as="geometry" />
        </mxCell>
        <mxCell id="Q2K4f21obNatQnWwm_q--42" style="edgeStyle=orthogonalEdgeStyle;rounded=0;orthogonalLoop=1;jettySize=auto;html=1;exitX=0;exitY=0.5;exitDx=0;exitDy=0;" parent="1" source="Q2K4f21obNatQnWwm_q--27" target="Q2K4f21obNatQnWwm_q--24" edge="1">
          <mxGeometry relative="1" as="geometry" />
        </mxCell>
        <mxCell id="Q2K4f21obNatQnWwm_q--50" value="extend" style="edgeLabel;html=1;align=center;verticalAlign=middle;resizable=0;points=[];" parent="Q2K4f21obNatQnWwm_q--42" vertex="1" connectable="0">
          <mxGeometry y="-1" relative="1" as="geometry">
            <mxPoint x="28" y="1" as="offset" />
          </mxGeometry>
        </mxCell>
        <mxCell id="Q2K4f21obNatQnWwm_q--27" value="Users Ban" style="ellipse;whiteSpace=wrap;html=1;" parent="1" vertex="1">
          <mxGeometry x="260" y="940" width="80" height="44" as="geometry" />
        </mxCell>
        <mxCell id="Q2K4f21obNatQnWwm_q--39" style="edgeStyle=orthogonalEdgeStyle;rounded=0;orthogonalLoop=1;jettySize=auto;html=1;exitX=0;exitY=0.5;exitDx=0;exitDy=0;entryX=1;entryY=0.5;entryDx=0;entryDy=0;" parent="1" source="Q2K4f21obNatQnWwm_q--28" target="Q2K4f21obNatQnWwm_q--24" edge="1">
          <mxGeometry relative="1" as="geometry" />
        </mxCell>
        <mxCell id="Q2K4f21obNatQnWwm_q--51" value="extend" style="edgeLabel;html=1;align=center;verticalAlign=middle;resizable=0;points=[];" parent="Q2K4f21obNatQnWwm_q--39" vertex="1" connectable="0">
          <mxGeometry x="-0.26" y="2" relative="1" as="geometry">
            <mxPoint x="0.04999999999999999" y="-2" as="offset" />
          </mxGeometry>
        </mxCell>
        <mxCell id="Q2K4f21obNatQnWwm_q--28" value="Remove Room&amp;nbsp;" style="ellipse;whiteSpace=wrap;html=1;" parent="1" vertex="1">
          <mxGeometry x="289" y="1006" width="80" height="44" as="geometry" />
        </mxCell>
        <mxCell id="Q2K4f21obNatQnWwm_q--40" style="edgeStyle=orthogonalEdgeStyle;rounded=0;orthogonalLoop=1;jettySize=auto;html=1;exitX=0;exitY=0.5;exitDx=0;exitDy=0;entryX=0.5;entryY=1;entryDx=0;entryDy=0;" parent="1" source="Q2K4f21obNatQnWwm_q--29" target="Q2K4f21obNatQnWwm_q--24" edge="1">
          <mxGeometry relative="1" as="geometry" />
        </mxCell>
        <mxCell id="Q2K4f21obNatQnWwm_q--52" value="extend" style="edgeLabel;html=1;align=center;verticalAlign=middle;resizable=0;points=[];" parent="Q2K4f21obNatQnWwm_q--40" vertex="1" connectable="0">
          <mxGeometry x="-0.1714" y="1" relative="1" as="geometry">
            <mxPoint x="18" y="-1" as="offset" />
          </mxGeometry>
        </mxCell>
        <mxCell id="Q2K4f21obNatQnWwm_q--29" value="View complains" style="ellipse;whiteSpace=wrap;html=1;" parent="1" vertex="1">
          <mxGeometry x="250" y="1070" width="100" height="44" as="geometry" />
        </mxCell>
        <mxCell id="p3Yy3RgGn7QPQlvN5r6D-6" style="edgeStyle=orthogonalEdgeStyle;rounded=0;orthogonalLoop=1;jettySize=auto;html=1;exitX=0;exitY=0.5;exitDx=0;exitDy=0;entryX=0.5;entryY=1;entryDx=0;entryDy=0;" edge="1" parent="1" source="Q2K4f21obNatQnWwm_q--59" target="suOXrTceFCORH5XAzuAw-1">
          <mxGeometry relative="1" as="geometry" />
        </mxCell>
        <mxCell id="p3Yy3RgGn7QPQlvN5r6D-7" value="extends" style="edgeLabel;html=1;align=center;verticalAlign=middle;resizable=0;points=[];" vertex="1" connectable="0" parent="p3Yy3RgGn7QPQlvN5r6D-6">
          <mxGeometry x="-0.1801" y="-3" relative="1" as="geometry">
            <mxPoint x="6" y="3" as="offset" />
          </mxGeometry>
        </mxCell>
        <mxCell id="Q2K4f21obNatQnWwm_q--59" value="Set Filters" style="ellipse;whiteSpace=wrap;html=1;" parent="1" vertex="1">
          <mxGeometry x="270" y="623" width="80" height="44" as="geometry" />
        </mxCell>
        <mxCell id="suOXrTceFCORH5XAzuAw-43" style="edgeStyle=orthogonalEdgeStyle;rounded=0;orthogonalLoop=1;jettySize=auto;html=1;exitX=1;exitY=0.5;exitDx=0;exitDy=0;entryX=0.396;entryY=1.004;entryDx=0;entryDy=0;entryPerimeter=0;" parent="1" source="Q2K4f21obNatQnWwm_q--69" target="Q2K4f21obNatQnWwm_q--26" edge="1">
          <mxGeometry relative="1" as="geometry" />
        </mxCell>
        <mxCell id="suOXrTceFCORH5XAzuAw-45" value="include" style="edgeLabel;html=1;align=center;verticalAlign=middle;resizable=0;points=[];" parent="suOXrTceFCORH5XAzuAw-43" vertex="1" connectable="0">
          <mxGeometry x="-0.624" y="1" relative="1" as="geometry">
            <mxPoint x="-7.6" y="1" as="offset" />
          </mxGeometry>
        </mxCell>
        <mxCell id="RNQDR2XtsP2G8HtWaNHG-8" style="edgeStyle=orthogonalEdgeStyle;rounded=0;orthogonalLoop=1;jettySize=auto;html=1;exitX=0;exitY=0.5;exitDx=0;exitDy=0;entryX=0.5;entryY=1;entryDx=0;entryDy=0;" parent="1" edge="1">
          <mxGeometry relative="1" as="geometry">
            <mxPoint x="528" y="622" as="sourcePoint" />
            <mxPoint x="393" y="574" as="targetPoint" />
          </mxGeometry>
        </mxCell>
        <mxCell id="RNQDR2XtsP2G8HtWaNHG-9" value="extend" style="edgeLabel;html=1;align=center;verticalAlign=middle;resizable=0;points=[];" parent="RNQDR2XtsP2G8HtWaNHG-8" vertex="1" connectable="0">
          <mxGeometry x="-0.4098" y="1" relative="1" as="geometry">
            <mxPoint as="offset" />
          </mxGeometry>
        </mxCell>
        <mxCell id="Q2K4f21obNatQnWwm_q--69" value="Share Room&lt;br&gt;to the Group" style="ellipse;whiteSpace=wrap;html=1;" parent="1" vertex="1">
          <mxGeometry x="530" y="600" width="80" height="44" as="geometry" />
        </mxCell>
        <mxCell id="Q2K4f21obNatQnWwm_q--137" style="edgeStyle=orthogonalEdgeStyle;rounded=0;orthogonalLoop=1;jettySize=auto;html=1;exitX=1;exitY=0.5;exitDx=0;exitDy=0;entryX=0;entryY=1;entryDx=0;entryDy=0;" parent="1" source="Q2K4f21obNatQnWwm_q--76" target="Q2K4f21obNatQnWwm_q--26" edge="1">
          <mxGeometry relative="1" as="geometry">
            <Array as="points">
              <mxPoint x="642" y="552" />
            </Array>
          </mxGeometry>
        </mxCell>
        <mxCell id="Q2K4f21obNatQnWwm_q--138" value="include" style="edgeLabel;html=1;align=center;verticalAlign=middle;resizable=0;points=[];" parent="Q2K4f21obNatQnWwm_q--137" vertex="1" connectable="0">
          <mxGeometry x="-0.2698" y="1" relative="1" as="geometry">
            <mxPoint x="-19.6" y="1" as="offset" />
          </mxGeometry>
        </mxCell>
        <mxCell id="RNQDR2XtsP2G8HtWaNHG-7" style="edgeStyle=orthogonalEdgeStyle;rounded=0;orthogonalLoop=1;jettySize=auto;html=1;exitX=0;exitY=0.5;exitDx=0;exitDy=0;entryX=1;entryY=0.5;entryDx=0;entryDy=0;" parent="1" source="Q2K4f21obNatQnWwm_q--76" target="Q2K4f21obNatQnWwm_q--97" edge="1">
          <mxGeometry relative="1" as="geometry" />
        </mxCell>
        <mxCell id="RNQDR2XtsP2G8HtWaNHG-10" value="extend" style="edgeLabel;html=1;align=center;verticalAlign=middle;resizable=0;points=[];" parent="RNQDR2XtsP2G8HtWaNHG-7" vertex="1" connectable="0">
          <mxGeometry x="-0.2842" relative="1" as="geometry">
            <mxPoint as="offset" />
          </mxGeometry>
        </mxCell>
        <mxCell id="Q2K4f21obNatQnWwm_q--76" value="Add to Favourites" style="ellipse;whiteSpace=wrap;html=1;" parent="1" vertex="1">
          <mxGeometry x="510" y="530" width="80" height="44" as="geometry" />
        </mxCell>
        <mxCell id="Q2K4f21obNatQnWwm_q--132" style="edgeStyle=orthogonalEdgeStyle;rounded=0;orthogonalLoop=1;jettySize=auto;html=1;exitX=1;exitY=0.5;exitDx=0;exitDy=0;entryX=0;entryY=0;entryDx=0;entryDy=0;" parent="1" source="Q2K4f21obNatQnWwm_q--95" target="Q2K4f21obNatQnWwm_q--26" edge="1">
          <mxGeometry relative="1" as="geometry">
            <Array as="points">
              <mxPoint x="180" y="432" />
              <mxPoint x="180" y="430" />
              <mxPoint x="642" y="430" />
            </Array>
          </mxGeometry>
        </mxCell>
        <mxCell id="Q2K4f21obNatQnWwm_q--133" value="include" style="edgeLabel;html=1;align=center;verticalAlign=middle;resizable=0;points=[];" parent="Q2K4f21obNatQnWwm_q--132" vertex="1" connectable="0">
          <mxGeometry x="-0.5593" y="-4" relative="1" as="geometry">
            <mxPoint x="-3" y="-4" as="offset" />
          </mxGeometry>
        </mxCell>
        <mxCell id="Q2K4f21obNatQnWwm_q--95" value="Review an Host" style="ellipse;whiteSpace=wrap;html=1;" parent="1" vertex="1">
          <mxGeometry x="140" y="410" width="80" height="44" as="geometry" />
        </mxCell>
        <mxCell id="suOXrTceFCORH5XAzuAw-16" style="edgeStyle=orthogonalEdgeStyle;rounded=0;orthogonalLoop=1;jettySize=auto;html=1;exitX=0;exitY=0.5;exitDx=0;exitDy=0;entryX=1;entryY=0.5;entryDx=0;entryDy=0;" parent="1" source="Q2K4f21obNatQnWwm_q--97" target="suOXrTceFCORH5XAzuAw-1" edge="1">
          <mxGeometry relative="1" as="geometry">
            <Array as="points">
              <mxPoint x="360" y="552" />
            </Array>
          </mxGeometry>
        </mxCell>
        <mxCell id="suOXrTceFCORH5XAzuAw-19" value="extend" style="edgeLabel;html=1;align=center;verticalAlign=middle;resizable=0;points=[];" parent="suOXrTceFCORH5XAzuAw-16" vertex="1" connectable="0">
          <mxGeometry x="-0.1791" relative="1" as="geometry">
            <mxPoint x="-18.33" as="offset" />
          </mxGeometry>
        </mxCell>
        <mxCell id="Q2K4f21obNatQnWwm_q--97" value="View Details" style="ellipse;whiteSpace=wrap;html=1;" parent="1" vertex="1">
          <mxGeometry x="355" y="530" width="80" height="44" as="geometry" />
        </mxCell>
        <mxCell id="A3zRzVIrhdaoTugr8JHT-3" value="&lt;font style=&quot;font-size: 16px&quot;&gt;&lt;b&gt;DoveStudi&lt;/b&gt;&lt;/font&gt;" style="text;html=1;align=center;verticalAlign=middle;resizable=0;points=[];autosize=1;" parent="1" vertex="1">
          <mxGeometry x="369" y="10" width="90" height="20" as="geometry" />
        </mxCell>
        <mxCell id="oppchM2e3aYntKxN--DW-3" style="edgeStyle=orthogonalEdgeStyle;rounded=0;orthogonalLoop=1;jettySize=auto;html=1;exitX=1;exitY=0.5;exitDx=0;exitDy=0;entryX=0.328;entryY=0.05;entryDx=0;entryDy=0;entryPerimeter=0;" parent="1" source="oppchM2e3aYntKxN--DW-2" target="Q2K4f21obNatQnWwm_q--26" edge="1">
          <mxGeometry relative="1" as="geometry" />
        </mxCell>
        <mxCell id="oppchM2e3aYntKxN--DW-4" value="include" style="edgeLabel;html=1;align=center;verticalAlign=middle;resizable=0;points=[];" parent="oppchM2e3aYntKxN--DW-3" vertex="1" connectable="0">
          <mxGeometry x="-0.5522" y="-2" relative="1" as="geometry">
            <mxPoint y="-2" as="offset" />
          </mxGeometry>
        </mxCell>
        <mxCell id="oppchM2e3aYntKxN--DW-2" value="Review a Guest" style="ellipse;whiteSpace=wrap;html=1;" parent="1" vertex="1">
          <mxGeometry x="200" y="210" width="80" height="44" as="geometry" />
        </mxCell>
        <mxCell id="suOXrTceFCORH5XAzuAw-1" value="Book Room" style="ellipse;whiteSpace=wrap;html=1;" parent="1" vertex="1">
          <mxGeometry x="140" y="530" width="80" height="44" as="geometry" />
        </mxCell>
        <mxCell id="suOXrTceFCORH5XAzuAw-40" style="edgeStyle=orthogonalEdgeStyle;rounded=0;orthogonalLoop=1;jettySize=auto;html=1;exitX=1;exitY=0.5;exitDx=0;exitDy=0;entryX=1;entryY=1;entryDx=0;entryDy=0;" parent="1" source="suOXrTceFCORH5XAzuAw-2" target="Q2K4f21obNatQnWwm_q--26" edge="1">
          <mxGeometry relative="1" as="geometry" />
        </mxCell>
        <mxCell id="suOXrTceFCORH5XAzuAw-41" value="include" style="edgeLabel;html=1;align=center;verticalAlign=middle;resizable=0;points=[];" parent="suOXrTceFCORH5XAzuAw-40" vertex="1" connectable="0">
          <mxGeometry x="-0.8157" y="2" relative="1" as="geometry">
            <mxPoint as="offset" />
          </mxGeometry>
        </mxCell>
        <mxCell id="suOXrTceFCORH5XAzuAw-2" value="Create Study&lt;br&gt;Group" style="ellipse;whiteSpace=wrap;html=1;" parent="1" vertex="1">
          <mxGeometry x="150" y="800" width="80" height="44" as="geometry" />
        </mxCell>
        <mxCell id="suOXrTceFCORH5XAzuAw-36" style="edgeStyle=orthogonalEdgeStyle;rounded=0;orthogonalLoop=1;jettySize=auto;html=1;exitX=1;exitY=0.5;exitDx=0;exitDy=0;" parent="1" source="suOXrTceFCORH5XAzuAw-29" edge="1">
          <mxGeometry relative="1" as="geometry">
            <mxPoint x="680" y="470" as="targetPoint" />
          </mxGeometry>
        </mxCell>
        <mxCell id="suOXrTceFCORH5XAzuAw-37" value="include" style="edgeLabel;html=1;align=center;verticalAlign=middle;resizable=0;points=[];" parent="suOXrTceFCORH5XAzuAw-36" vertex="1" connectable="0">
          <mxGeometry x="-0.7897" y="1" relative="1" as="geometry">
            <mxPoint as="offset" />
          </mxGeometry>
        </mxCell>
        <mxCell id="suOXrTceFCORH5XAzuAw-29" value="Delete Reservation" style="ellipse;whiteSpace=wrap;html=1;" parent="1" vertex="1">
          <mxGeometry x="150" y="730" width="80" height="44" as="geometry" />
        </mxCell>
        <mxCell id="RNQDR2XtsP2G8HtWaNHG-39" style="edgeStyle=orthogonalEdgeStyle;rounded=0;orthogonalLoop=1;jettySize=auto;html=1;exitX=1;exitY=0.75;exitDx=0;exitDy=0;entryX=0;entryY=0.5;entryDx=0;entryDy=0;" parent="1" source="RNQDR2XtsP2G8HtWaNHG-30" target="oppchM2e3aYntKxN--DW-2" edge="1">
          <mxGeometry relative="1" as="geometry" />
        </mxCell>
        <mxCell id="RNQDR2XtsP2G8HtWaNHG-29" value="Host" style="shape=umlActor;verticalLabelPosition=bottom;verticalAlign=top;html=1;outlineConnect=0;" parent="1" vertex="1">
          <mxGeometry x="20" y="97" width="30" height="64" as="geometry" />
        </mxCell>
        <mxCell id="p3Yy3RgGn7QPQlvN5r6D-3" style="edgeStyle=orthogonalEdgeStyle;rounded=0;orthogonalLoop=1;jettySize=auto;html=1;exitX=0.5;exitY=0;exitDx=0;exitDy=0;" edge="1" parent="1" source="RNQDR2XtsP2G8HtWaNHG-30" target="p3Yy3RgGn7QPQlvN5r6D-2">
          <mxGeometry relative="1" as="geometry" />
        </mxCell>
        <mxCell id="RNQDR2XtsP2G8HtWaNHG-30" value="" style="rounded=0;whiteSpace=wrap;html=1;direction=south;fillColor=none;" parent="1" vertex="1">
          <mxGeometry x="10" y="94" width="50" height="90" as="geometry" />
        </mxCell>
        <mxCell id="Q2K4f21obNatQnWwm_q--4" value="Guest" style="shape=umlActor;verticalLabelPosition=bottom;verticalAlign=top;html=1;outlineConnect=0;" parent="1" vertex="1">
          <mxGeometry x="20" y="603" width="30" height="64" as="geometry" />
        </mxCell>
        <mxCell id="RNQDR2XtsP2G8HtWaNHG-14" value="" style="rounded=0;whiteSpace=wrap;html=1;direction=south;fillColor=none;" parent="1" vertex="1">
          <mxGeometry x="10" y="600" width="50" height="90" as="geometry" />
        </mxCell>
        <mxCell id="RNQDR2XtsP2G8HtWaNHG-32" value="" style="group;strokeColor=#000000;" parent="1" vertex="1" connectable="0">
          <mxGeometry x="10" y="980" width="50" height="90" as="geometry" />
        </mxCell>
        <mxCell id="RNQDR2XtsP2G8HtWaNHG-33" value="Admin" style="shape=umlActor;verticalLabelPosition=bottom;verticalAlign=top;html=1;outlineConnect=0;" parent="RNQDR2XtsP2G8HtWaNHG-32" vertex="1">
          <mxGeometry x="10" y="3" width="30" height="64" as="geometry" />
        </mxCell>
        <mxCell id="x8aNUQi9iBIokIvOfFG9-1" value="" style="rounded=0;whiteSpace=wrap;html=1;direction=south;fillColor=none;strokeColor=none;" parent="RNQDR2XtsP2G8HtWaNHG-32" vertex="1">
          <mxGeometry width="50" height="90" as="geometry" />
        </mxCell>
        <mxCell id="p3Yy3RgGn7QPQlvN5r6D-4" style="edgeStyle=orthogonalEdgeStyle;rounded=0;orthogonalLoop=1;jettySize=auto;html=1;exitX=1;exitY=0.5;exitDx=0;exitDy=0;entryX=0.7;entryY=0.045;entryDx=0;entryDy=0;entryPerimeter=0;" edge="1" parent="1" source="p3Yy3RgGn7QPQlvN5r6D-2" target="Q2K4f21obNatQnWwm_q--26">
          <mxGeometry relative="1" as="geometry" />
        </mxCell>
        <mxCell id="p3Yy3RgGn7QPQlvN5r6D-5" value="include" style="edgeLabel;html=1;align=center;verticalAlign=middle;resizable=0;points=[];" vertex="1" connectable="0" parent="p3Yy3RgGn7QPQlvN5r6D-4">
          <mxGeometry x="-0.6366" y="-2" relative="1" as="geometry">
            <mxPoint as="offset" />
          </mxGeometry>
        </mxCell>
        <mxCell id="p3Yy3RgGn7QPQlvN5r6D-2" value="Manage Room" style="ellipse;whiteSpace=wrap;html=1;" vertex="1" parent="1">
          <mxGeometry x="200" y="117" width="80" height="44" as="geometry" />
        </mxCell>
      </root>
    </mxGraphModel>
  </diagram>
</mxfile>
